<svg viewBox="0 0 375 738" fill="none" xmlns="http://www.w3.org/2000/svg" preserveAspectRatio="none">
<path d="M63 2.5891C19 -7.57002 16.7746 14.4396 1.65155 29.2961L0 715.172C28.465 738.695 36.237 750.25 100.939 718.886C165.641 687.522 170.78 718.886 259.003 718.886C323 718.886 357.966 685.046 375 704.854V15.2655C344.301 -10.4582 320.538 15.2655 267.163 15.2655C215 15.2655 112.404 13.996 63 2.5891Z" fill="#74C5FF"/>
<path d="M96.3035 6.13876C60.7393 -11.7096 15.7263 13.576 0.583658 28.4496L0 708.09C83.5603 729.574 76.1478 702.861 135 728.682C179.261 748.101 221.083 708.09 303 708.09C341.5 708.09 347 731.988 375 728.682V34.2338C344.261 8.48047 309.658 -9.43601 248.833 6.13831C181.5 23.3788 140.759 28.4491 96.3035 6.13876Z" fill="#2580C1"/>
</svg>
