<svg viewBox="0 0 375 1305" fill="none" xmlns="http://www.w3.org/2000/svg" preserveAspectRatio="none">
<path d="M96.3035 767.371C57.7458 761.787 15.1427 772.733 0 783.778V1288.64C83.5603 1304.59 77.6478 1282.14 136.5 1301.32C180.761 1315.74 233.5 1283.16 304.5 1283.16C366.019 1283.16 350.5 1288.64 375 1286.18V788.235C344.261 769.11 304.723 753.335 248.833 767.371C183.5 783.778 153 775.582 96.3035 767.371Z" fill="#FF6D8D"/>
<path d="M133.372 65.8155C48.0125 137.157 40.6931 20.6013 0 43.1384V809.541C48.2866 767.686 119.646 815 176.11 815C240.809 815 328.141 790.083 375 791.063V65.8155C313.863 15.422 180.101 26.7606 133.372 65.8155Z" fill="#FFB9CA"/>
<path d="M174.455 0H0V814.999C84.3069 753.233 154.654 788.419 212 794.41C299 803.5 325.545 830.44 375 794.41V0H174.455Z" fill="#74C5FF"/>
<rect width="375" height="761.681" fill="#74C5FF"/>
</svg>
