<svg viewBox="0 0 1920 1285" fill="none" xmlns="http://www.w3.org/2000/svg"  preserveAspectRatio="none">
<path d="M1408.8 1273.5C1776.25 1237.47 1848.89 1285.48 1920 1273.5L1920 614L5.80487e-05 621L3.75916e-06 1242C175.54 1284.41 272.733 1265.1 388.477 1259.25C728.119 1242.09 1022.41 1311.38 1408.8 1273.5Z" fill="#FF6D8D"/>
<path d="M682.866 51.8447C245.824 108.043 208.349 16.228 0 33.9812V637.701C247.227 604.73 612.586 642.001 901.682 642.001C1232.94 642.001 1680.08 622.373 1920 623.145V51.8447C1606.98 12.1482 922.118 21.0799 682.866 51.8447Z" fill="#FFB9CA"/>
<path d="M893.209 0H0V642C431.651 593.345 916.279 594.586 1169.84 609.932C1559.63 633.522 1666.79 654.164 1920 625.782V0H893.209Z" fill="#74C5FF"/>
</svg>
